:SAMPLES-PER-SECOND 30
:FULLY-SPECIFIED
:DEGREES
1
root  34.89747235 36.55127578 -14.65194282 9.524160385 -4.149981022 2.969935894
lowerback  -8.850410461 -0.1304770857 -0.1601394713
upperback  -3.75928998 0.2888219953 -3.076989889
thorax  1.083459973 0.2981590033 -3.060090065
lowerneck  -14.83749962 -4.395979881 -3.371079922
upperneck  15.79810047 -6.218700409 6.389949799
head  7.625249863 -2.46442008 1.981619954
lclavicle  0 -4.497500157e-015 -2.743230041e-014
lhumerus  -47.99560165 30.88489914 63.25490189
lradius  0.001791912713 -6.507048965e-006 29.5454464
lwrist  3.192251654e-007 -3.790274832e-007 -28.38709831
lhand  -4.413167194e-031 -36.85710144 -10.38479996
lfingers  90 7.125020027 -90
lthumb  94.73460718 -25.22747468 100.9968456
rclavicle  0 -4.497500157e-015 -2.743230041e-014
rhumerus  -56.97969818 -46.32550049 -40.70299911
rradius  -5.16745672e-007 2.214343908e-008 35.34320068
rwrist  0.0006954420824 -0.004670973402 -139.0169983
rhand  -3.535513218e-031 -2.854949951 -7.66711998
rfingers  -90 -7.125020027 -90
rthumb  -86.61206786 -7.981945253 -66.91035963
rfemur  -12.54994965 15.93183422 13.0244875
rtibia  -0.5255067348 -0.5503473878 19.8613472
rfoot  0.4015822709 -21.23017883 -36.75117111
rtoes  4.138733712 19.58426543 -102.1819001
lfemur  -8.712217331 -15.86528397 -19.45939636
ltibia  2.326100349 0.1271491796 14.43228722
lfoot  0.4320036769 -25.32741928 35.95146179
ltoes  -8.724062091 -18.06748907 -116.3255407
2
root  34.89834643 36.54776746 -14.65093357 9.524160385 -4.149981022 2.985865355
lowerback  -8.850410461 -0.1173530146 -0.1333580613
upperback  -3.75928998 0.3054479957 -3.097460032
thorax  1.083459973 0.2981590033 -3.09491992
lowerneck  -14.8434 -4.414579868 -3.393599987
upperneck  15.79810047 -6.246790409 6.436359882
head  7.628859997 -2.47420001 1.997289896
lclavicle  0 -4.497500157e-015 -2.743230041e-014
lhumerus  -47.95930099 30.85689926 63.26670074
lradius  0.001791912713 -6.507048965e-006 29.5454464
lwrist  3.192251654e-007 -3.790274832e-007 -28.45269966
lhand  -4.413426916e-031 -36.86159897 -10.43980026
lfingers  90 7.125020027 -90
lthumb  94.74829025 -25.28130286 101.0065857
rclavicle  0 -4.497500157e-015 -2.743230041e-014
rhumerus  -56.6577034 -46.01530075 -41.1750946
rradius  -5.16745672e-007 2.214343908e-008 35.60710144
rwrist  0.0006954420824 -0.004670973402 -138.9019928
rhand  -1.767945559e-031 -2.975209951 -7.610770226
rfingers  -90 -7.125020027 -90
rthumb  -86.61159503 -8.027599693 -67.02436996
rfemur  -12.55486774 15.94744587 13.01145363
rtibia  -0.5395092964 -0.5563327074 19.8611927
rfoot  0.4015822709 -21.21229362 -36.78705215
rtoes  4.186268932 19.57453898 -102.3237484
lfemur  -8.711054802 -15.82358837 -19.48313522
ltibia  2.35841608 0.1433307678 14.42861843
lfoot  0.4730552137 -25.36984444 35.96133804
ltoes  -8.726770532 -18.0662148 -116.3342741
3
root  34.89948183 36.5476383 -14.64979667 9.519236565 -4.149981022 3.004930019
lowerback  -8.85144043 -0.1145749539 -0.1191849783
upperback  -3.75928998 0.3078359962 -3.097300053
thorax  1.084130049 0.2981590033 -3.10255003
lowerneck  -14.8739996 -4.434889793 -3.430370092
upperneck  15.80770016 -6.270199776 6.452640057
head  7.640399933 -2.48548007 2.005409956
lclavicle  0 -4.497500157e-015 -2.743230041e-014
lhumerus  -47.94580078 30.85110092 63.30160141
lradius  0.001791912713 -6.507048965e-006 29.5454464
lwrist  3.192251654e-007 -3.790274832e-007 -28.43219757
lhand  -4.412260932e-031 -36.84140015 -10.50790024
lfingers  90 7.125020027 -90
lthumb  94.7532762 -25.34888405 100.9911416
rclavicle  0 -4.497500157e-015 -2.743230041e-014
rhumerus  -56.373703 -45.75579834 -41.57629776
rradius  -5.16745672e-007 2.214343908e-008 35.8103981
rwrist  0.0006954420824 -0.004670973402 -139.1430054
rhand  -1.767802125e-031 -2.884380102 -7.58355999
rfingers  -90 -7.125020027 -90
rthumb  -86.58434033 -8.057315508 -66.93446639
rfemur  -12.51457024 15.92687607 12.9875145
rtibia  -0.5386730433 -0.6075065136 19.81057167
rfoot  0.4130946398 -21.28083038 -36.78772736
rtoes  4.133481781 19.5853329 -102.1662321
lfemur  -8.724493027 -15.85133553 -19.51521683
ltibia  2.37024951 0.1008815393 14.46882439
lfoot  0.4902437925 -25.31086922 35.95466995
ltoes  -8.730316873 -18.06454556 -116.3457101
4
root  34.90114888 36.54817596 -14.64902172 9.503288269 -4.160197735 2.995225906
lowerback  -8.886440277 -0.1226719469 -0.1591442674
upperback  -3.756560087 0.3019250035 -3.095010042
thorax  1.105839968 0.2981590033 -3.078130007
lowerneck  -14.87919998 -4.449160099 -3.475850105
upperneck  15.77420044 -6.285779953 6.489140034
head  7.633850098 -2.493370056 2.022850037
lclavicle  0 -4.497500157e-015 -2.743230041e-014
lhumerus  -47.93880081 30.89069939 63.3083992
lradius  0.001791912713 -6.507048965e-006 29.5454464
lwrist  3.192251654e-007 -3.790274832e-007 -28.49169922
lhand  -4.412474444e-031 -36.8451004 -10.40429974
lfingers  90 7.125020027 -90
lthumb  94.73315096 -25.24698361 100.9857853
rclavicle  0 -4.497500157e-015 -2.743230041e-014
rhumerus  -56.08820343 -45.46350098 -41.98249435
rradius  -5.16745672e-007 2.214343908e-008 36.01060104
rwrist  0.0006954420824 -0.004670973402 -139.8339996
rhand  -1.767773088e-031 -2.865639925 -7.639100075
rfingers  -90 -7.125020027 -90
rthumb  -86.60290143 -8.007207182 -66.91926836
rfemur  -12.46604919 15.93756008 12.99269009
rtibia  -0.5235893726 -0.6230998635 19.7553997
rfoot  0.4300577044 -21.30932045 -36.79473877
rtoes  4.116659007 19.5887426 -102.1160506
lfemur  -8.749848366 -15.86180115 -19.49575043
ltibia  2.328054667 0.0824714303 14.5362339
lfoot  0.4784927368 -25.31143951 35.93591309
ltoes  -8.709355485 -18.07439955 -116.2781298
5
root  34.90200794 36.54930235 -14.64829933 9.526477814 -4.159180641 3.00987196
lowerback  -8.874510765 -0.1246200576 -0.1811406463
upperback  -3.743659973 0.2999489903 -3.095659971
thorax  1.112499952 0.2981590033 -3.066519976
lowerneck  -14.88840008 -4.472290039 -3.474740028
upperneck  15.74680042 -6.318069458 6.492730141
head  7.628310204 -2.509180069 2.019860029
lclavicle  0 -4.497500157e-015 -2.743230041e-014
lhumerus  -47.90769958 30.90920067 63.31639862
lradius  0.001791912713 -6.507048965e-006 29.54708862
lwrist  3.192251654e-007 -3.790274832e-007 -28.56990051
lhand  -4.416052048e-031 -36.9070015 -10.66629982
lfingers  90 7.125020027 -90
lthumb  94.81749295 -25.50201483 101.0757362
rclavicle  0 -4.497500157e-015 -2.743230041e-014
rhumerus  -55.82350159 -45.17509842 -42.41350555
rradius  -5.16745672e-007 2.214343908e-008 36.29759979
rwrist  0.0006954420824 -0.004670973402 -140.1529999
rhand  -1.767598079e-031 -2.749979973 -7.59059
rfingers  -90 -7.125020027 -90
rthumb  -86.56258015 -8.057789603 -66.80391846
rfemur  -12.51358509 15.93071079 12.97025108
rtibia  -0.5331380367 -0.6359896064 19.79833603
rfoot  0.4171031117 -21.33519363 -36.77043915
rtoes  4.117511011 19.58857026 -102.1185919
lfemur  -8.760570526 -15.87241554 -19.50772476
ltibia  2.337598324 0.08911073208 14.49229527
lfoot  0.4667621851 -25.29725456 35.94971466
ltoes  -8.695965129 -18.08067879 -116.2349774
6
root  34.9022242 36.55728017 -14.64745679 9.538140297 -4.152089119 3.019655466
lowerback  -8.852410316 -0.1303756833 -0.1646015197
upperback  -3.739979982 0.2918370068 -3.112689972
thorax  1.103790045 0.2981590033 -3.094369888
lowerneck  -14.89900017 -4.472000122 -3.407670021
upperneck  15.71710014 -6.325560093 6.456799984
head  7.617380142 -2.512979984 1.995959878
lclavicle  0 -4.497500157e-015 -2.743230041e-014
lhumerus  -47.87440109 30.91500092 63.30049896
lradius  0.001916930894 -6.507048965e-006 29.54866982
lwrist  3.192251654e-007 -3.790274832e-007 -28.5610981
lhand  -4.41628348e-031 -36.9109993 -10.7159996
lfingers  90 7.125020027 -90
lthumb  94.82991905 -25.55066683 101.0844902
rclavicle  0 -4.497500157e-015 -2.743230041e-014
rhumerus  -55.60860062 -44.8844986 -42.82789993
rradius  -5.16745672e-007 2.214343908e-008 36.5807991
rwrist  0.0006954420824 -0.004670973402 -140.7039948
rhand  -1.767483896e-031 -2.671809912 -7.647109985
rfingers  -90 -7.125020027 -90
rthumb  -86.57081777 -8.00992263 -66.73093834
rfemur  -12.54125118 15.90282345 12.96712017
rtibia  -0.5354811549 -0.6211263537 19.84592819
rfoot  0.3999193907 -21.32926559 -36.75085831
rtoes  4.127377617 19.5865718 -102.1480227
lfemur  -8.738025665 -15.86957073 -19.52095985
ltibia  2.356492043 0.1049349904 14.41444206
lfoot  0.4334426522 -25.28383255 35.92559052
ltoes  -8.660381448 -18.09730638 -116.1203739
7
root  34.90234735 36.55634602 -14.64629136 9.554556847 -4.148192406 3.031382084
lowerback  -8.831010818 -0.1359684169 -0.1780566871
upperback  -3.738339186 0.2862386405 -3.120959997
thorax  1.094269991 0.2981590033 -3.095340014
lowerneck  -14.90740013 -4.483870029 -3.391089916
upperneck  15.69939995 -6.346419334 6.465459824
head  7.613969803 -2.521290064 1.993540049
lclavicle  0 -4.497500157e-015 -2.743230041e-014
lhumerus  -47.85800171 30.92009926 63.30130005
lradius  0.002071622526 -6.507048965e-006 29.55019188
lwrist  3.192251654e-007 -3.790274832e-007 -28.52079964
lhand  -4.415195619e-031 -36.89220047 -10.66300011
lfingers  90 7.125020027 -90
lthumb  94.80984312 -25.4993929 101.0595365
rclavicle  0 -4.497500157e-015 -2.743230041e-014
rhumerus  -55.34880066 -44.51190186 -43.29389954
rradius  -5.16745672e-007 2.214343908e-008 36.84529877
rwrist  0.0006954420824 -0.004670973402 -141.5010071
rhand  -1.767424436e-031 -2.630179882 -7.772580147
rfingers  -90 -7.125020027 -90
rthumb  -86.61331156 -7.896958564 -66.69737197
rfemur  -12.59272099 15.95314026 12.95454025
rtibia  -0.5362522602 -0.5716412067 19.9134922
rfoot  0.3792409897 -21.24086952 -36.77449417
rtoes  4.099939364 19.59211694 -102.066185
lfemur  -8.678717613 -15.8563509 -19.55545044
ltibia  2.408528566 0.1319588572 14.28250599
lfoot  0.4227219224 -25.2680378 35.95619965
ltoes  -8.683214672 -18.08664668 -116.1939006
8
root  34.90201995 36.55568821 -14.64430591 9.541096687 -4.129505634 3.026503563
lowerback  -8.841620445 -0.1372649819 -0.1975779533
upperback  -3.737001181 0.2857509851 -3.124670029
thorax  1.092759967 0.2981590033 -3.088779926
lowerneck  -14.89299965 -4.502739906 -3.41711998
upperneck  15.66020012 -6.36826992 6.478360176
head  7.600989819 -2.533760071 1.999619961
lclavicle  0 -4.497500157e-015 -2.743230041e-014
lhumerus  -47.87049866 31.00139999 63.27030182
lradius  0.002254009247 -6.507048965e-006 29.55174446
lwrist  3.192251654e-007 -3.790274832e-007 -28.55999947
lhand  -0 -36.89910126 -10.67000008
lfingers  90 7.125020027 -90
lthumb  94.81459424 -25.50599207 101.0676351
rclavicle  0 -4.497500157e-015 -2.743230041e-014
rhumerus  -55.06700134 -44.13460159 -43.71519852
rradius  -5.16745672e-007 2.214343908e-008 37.12779999
rwrist  0.0006954420824 -0.004670973402 -142.3139954
rhand  -1.767235359e-031 -2.493170023 -7.89027977
rfingers  -90 -7.125020027 -90
rthumb  -86.63577629 -7.796224266 -66.57039581
rfemur  -12.58499146 15.93326092 12.96596622
rtibia  -0.536524117 -0.5596936345 19.93361664
rfoot  0.3728186488 -21.24545097 -36.76189423
rtoes  4.101465969 19.59180944 -102.0707377
lfemur  -8.598718643 -15.86226845 -19.57321548
ltibia  2.447180748 0.1517644823 14.18196297
lfoot  0.4092252553 -25.25643158 35.97260666
ltoes  -8.70341918 -18.07718481 -116.2589974
